<?xml version="1.0" encoding="UTF-8"?>
<!DOCTYPE svg PUBLIC "-//W3C//DTD SVG 1.1//EN" "http://www.w3.org/Graphics/SVG/1.1/DTD/svg11.dtd">
<!-- Creator: CorelDRAW 2017 -->
<svg xmlns="http://www.w3.org/2000/svg" xml:space="preserve" width="150px" height="150px" version="1.1" style="shape-rendering:geometricPrecision; text-rendering:geometricPrecision; image-rendering:optimizeQuality; fill-rule:evenodd; clip-rule:evenodd"
viewBox="0 0 61.53 61.53"
 xmlns:xlink="http://www.w3.org/1999/xlink">
 <defs>
  <style type="text/css">
   <![CDATA[
    .fil0 {fill:#95E1D3}
   ]]>
  </style>
 </defs>
 <g id="Layer_x0020_1">
  <metadata id="CorelCorpID_0Corel-Layer"/>
  <path class="fil0" d="M42.45 33.02l-0.37 0 0 0 -0.45 0 0 2.05 0 0c0,0.08 -0.01,0.17 -0.02,0.25 -0.01,0.05 -0.03,0.11 -0.05,0.16 -0.01,0.02 -0.02,0.05 -0.03,0.07 -0.02,0.04 -0.04,0.09 -0.07,0.13 -0.01,0.03 -0.02,0.05 -0.04,0.08 -0.04,0.06 -0.09,0.11 -0.14,0.16 0,0.01 0,0.01 -0.01,0.02 -0.22,0.22 -0.52,0.35 -0.85,0.36 -0.01,0 -0.01,0 -0.02,0l0 0 0 0c-0.34,0 -0.65,-0.14 -0.87,-0.36l-2.92 -2.92 -0.15 0 0 0 -11.23 0c-0.68,0 -1.23,-0.55 -1.23,-1.23l0 -12.31c0,-0.68 0.55,-1.23 1.23,-1.23l17.22 0c0.68,0 1.23,0.55 1.23,1.23l0 12.31c0,0.68 -0.55,1.23 -1.23,1.23zm19.08 -33.02l-60.93 0 -0.6 0 0 61.53 61.53 0 0 -61.53zm-60.32 1.21l59.11 0 0 59.11 -59.11 0 0 -59.11zm34.89 33.04l2.6 2.59 0 0c0.44,0.43 1.04,0.69 1.7,0.69l0 0.82c0,0.68 -0.55,1.23 -1.23,1.23l0 0 -8.65 0 0 0 -2.83 0 0 0 -1.23 0 0 0 -0.31 0 -3.34 3.33c-0.22,0.22 -0.53,0.36 -0.87,0.36l0 0 0 0c0,0 -0.01,0 -0.01,0 -0.33,0 -0.64,-0.14 -0.86,-0.36 0,0 0,-0.01 -0.01,-0.01 -0.05,-0.06 -0.1,-0.11 -0.14,-0.17 -0.01,-0.02 -0.02,-0.05 -0.04,-0.08 -0.02,-0.04 -0.05,-0.08 -0.07,-0.13 -0.01,-0.02 -0.01,-0.05 -0.02,-0.07 -0.02,-0.05 -0.04,-0.1 -0.05,-0.16 -0.02,-0.08 -0.03,-0.16 -0.03,-0.25l0 0 0 -2.46 -0.2 0 0 0 -1.44 0c-0.68,0 -1.23,-0.55 -1.23,-1.23l0 -13.94c0,0 0,0 0,0 0,-0.68 0.55,-1.24 1.23,-1.24l3.69 0 0 8.62c0,1.36 1.11,2.46 2.47,2.46l10.87 0z"/>
 </g>
</svg>
