<?xml version="1.0" encoding="utf-8"?><svg xmlns="http://www.w3.org/2000/svg" xmlns:xlink="http://www.w3.org/1999/xlink"><symbol viewBox="0 0 16 16" id="dribble"><path d="M15.837 6.404a7.958 7.958 0 0 0-2.18-4.046A7.935 7.935 0 0 0 9.611.177a8.04 8.04 0 0 0-6.085 1.204 8.082 8.082 0 0 0-2.159 2.16A7.94 7.94 0 0 0 0 8.014a7.906 7.906 0 0 0 .629 3.115A8.012 8.012 0 0 0 8 16.016a7.97 7.97 0 0 0 3.114-.63 8.02 8.02 0 0 0 4.257-4.257A7.964 7.964 0 0 0 16 8.014a7.96 7.96 0 0 0-.163-1.61zM14.83 7.947c-.099-.022-2.411-.519-4.759-.224-.048-.117-.096-.234-.147-.353a21.085 21.085 0 0 0-.454-.991c2.698-1.101 3.794-2.686 3.807-2.704a6.804 6.804 0 0 1 1.553 4.272zm-2.317-5.059c-.017.026-.99 1.507-3.569 2.473A34.613 34.613 0 0 0 6.39 1.375a6.803 6.803 0 0 1 6.123 1.513zM6.364 1.381l-.002.001-.02.005c.007-.003.014-.004.022-.006zm-1.279.455a41.078 41.078 0 0 1 2.537 3.936c-3.281.872-6.128.838-6.308.834a6.84 6.84 0 0 1 3.771-4.77zM1.168 8.014c0-.072.003-.144.005-.216.121.003 3.497.08 7.015-.972.196.382.383.772.554 1.16a8.34 8.34 0 0 0-.269.082c-3.687 1.192-5.557 4.51-5.557 4.51s.002.001.002.003a6.81 6.81 0 0 1-1.75-4.567zM8 14.847a6.797 6.797 0 0 1-4.352-1.566c.09.073.153.12.153.12s1.31-2.857 5.362-4.268l.045-.014c.961 2.498 1.358 4.59 1.459 5.188a6.806 6.806 0 0 1-2.667.54zm3.818-1.165c-.07-.413-.434-2.418-1.33-4.88 2.206-.353 4.117.251 4.258.298a6.838 6.838 0 0 1-2.928 4.582z"/></symbol><symbol viewBox="0 0 8 17" id="facebook"><path d="M7.993.015V2.59s-1.898-.189-2.374.538c-.26.399-.105 1.563-.128 2.399h2.518c-.213.978-.365 1.64-.522 2.487h-2.01v8.002H1.988V8.045H.504V5.527h1.468c.075-1.841.103-3.665 1.018-4.594C4.018-.111 4.998.015 7.993.015z"/></symbol><symbol viewBox="0 0 16 15" id="google-plus"><path d="M13.5 3.717v2.44h-1v-2.44H10v-.998h2.5V.279h1v2.44H16v.998h-2.5zM6.585 1.246c.888.491 1.408 1.288 1.408 2.331 0 .876-.541 1.566-1.239 2.102-.681.522-.81.742-.81 1.186 0 .378.729 1.024 1.111 1.289 1.114.774 1.444 1.493 1.444 2.693 0 1.497-1.444 3.169-4.116 3.169C2.039 14.016 0 12.895 0 11.398c0-1.52 1.866-2.987 4.209-2.987.256 0 .49-.01.732-.01-.321-.307-.574-.688-.574-1.151 0-.275.089-.55.213-.785-.127.009-.257-.012-.391-.012-1.924 0-3.214-1.391-3.214-3.057C.975 1.765 2.756.263 4.648.263h4.22l-.945.983H6.585zM4.656 8.799c-1.62-.017-3.071.97-3.071 2.156 0 1.209 1.17 2.094 2.789 2.094 2.277 0 3.071-.823 3.071-2.032 0-.146-.018-.289-.052-.428-.178-.685-.808-1.024-1.688-1.624a3.596 3.596 0 0 0-1.049-.166zm1.82-5.203C6.287 2.194 5.207 1.068 4.12 1.037 3.033 1.005 2.304 2.078 2.492 3.48 2.68 4.883 3.713 6.046 4.8 6.077c1.087.032 1.863-1.079 1.676-2.481z"/></symbol><symbol viewBox="0 0 16 16" id="instagram"><path d="M14 16.015H2a2 2 0 0 1-2-2v-12a2 2 0 0 1 2-2h12a2 2 0 0 1 2 2v12a2 2 0 0 1-2 2zm-6-11.1c-1.247 0-2.32.738-2.811 1.8h-.003l-.014.034a3.234 3.234 0 0 0-.08.201c-.012.032-.025.064-.036.097a2.58 2.58 0 0 0-.059.213c-.009.033-.019.066-.026.1a2.45 2.45 0 0 0-.038.23l-.015.093a3.1 3.1 0 1 0 6.164 0l-.015-.093a2.828 2.828 0 0 0-.038-.23c-.007-.034-.017-.067-.026-.1a3.043 3.043 0 0 0-.059-.213c-.011-.033-.024-.065-.036-.097a3.234 3.234 0 0 0-.08-.201l-.014-.034h-.003A3.097 3.097 0 0 0 8 4.915zm6.2-2.3a.8.8 0 0 0-.8-.8h-1.6a.8.8 0 0 0-.8.8v1.6a.8.8 0 0 0 .8.8h1.6a.8.8 0 0 0 .8-.8v-1.6zm0 4.1h-1.475a4.9 4.9 0 1 1-9.45 0H1.8v6.7a.8.8 0 0 0 .8.8h10.8a.8.8 0 0 0 .8-.8v-6.7z"/></symbol><symbol viewBox="0 0 20 26" id="map-mark"><path d="M10 25.8S.4 15.101.4 9.8 4.698.2 10 .2s9.6 4.299 9.6 9.6c0 5.301-9.6 16-9.6 16zm0-22.4a6.4 6.4 0 1 0 0 12.8 6.4 6.4 0 0 0 0-12.8zm0 9.6a3.2 3.2 0 1 1 0-6.4 3.2 3.2 0 0 1 0 6.4z"/></symbol><symbol viewBox="0 0 21 26" id="pinterest"><path d="M9.051 16.854c-.209.833-.42 1.706-.638 2.56-.215.842-.405 1.696-.718 2.47-.519 1.281-1.178 2.519-2.043 3.521-.575.667-.453.401-.626.365-.132-.027-.143-.157-.169-.345-.141-1.018-.045-2.195.007-3.339.06-1.304.334-2.388.589-3.471.484-2.063.946-4.087 1.435-6.164.032-.138.12-.366.09-.445-.222-.577-.366-1.095-.429-1.7a5.42 5.42 0 0 1 .139-1.944c.277-1.058.913-1.995 1.894-2.338.624-.216 1.315-.118 1.735.132.432.259.729.667.867 1.246.148.615.039 1.351-.08 1.891-.267 1.219-.618 2.134-.937 3.31-.158.583-.337 1.182-.189 1.812.136.578.437.976.847 1.275.426.31.93.479 1.625.455 1.228-.043 2.081-.828 2.651-1.568.913-1.185 1.465-2.784 1.675-4.686.067-.614.117-1.319.07-2.014-.088-1.284-.489-2.317-1.127-3.117-.606-.762-1.466-1.369-2.512-1.711-1.037-.338-2.472-.451-3.747-.233-2.318.397-3.952 1.714-4.915 3.533a7.082 7.082 0 0 0-.837 3.41c0 1.051.259 1.865.678 2.5.133.201.328.367.458.597.185.326-.028.811-.119 1.164-.11.425-.122 1.012-.618 1.022-.206.004-.464-.146-.638-.243-1.305-.721-2.097-2.033-2.422-3.734a8.921 8.921 0 0 1 0-3.238 9.232 9.232 0 0 1 4.396-6.144C6.559 1.023 7.818.56 9.35.337a16.318 16.318 0 0 1 1.605-.131 9.637 9.637 0 0 1 4.326.809 8.839 8.839 0 0 1 2.98 2.146c.838.915 1.448 1.979 1.834 3.309.202.692.398 1.432.398 2.287 0 .858-.181 1.613-.308 2.368-.474 2.828-1.819 5.141-3.838 6.458a6.611 6.611 0 0 1-1.754.809c-.667.194-1.428.34-2.243.283a4.586 4.586 0 0 1-1.983-.577c-.54-.305-.994-.679-1.316-1.244z"/></symbol><symbol viewBox="0 0 17 15" id="speech-bubble"><path d="M9.416 12.358c-.573 0-1.134-.165-1.676-.243-2.191 2.771-5.647 2.225-5.647 2.225 2.441-1.155 2.391-3.069 1.957-3.324C2.134 9.89.982 8.176.982 6.255c0-3.39 3.727-6.139 8.434-6.139 4.708 0 7.577 2.749 7.577 6.139 0 3.392-2.869 6.103-7.577 6.103zM5.242 4.875a1.5 1.5 0 1 0 0 3 1.5 1.5 0 0 0 0-3zm3.75 0a1.5 1.5 0 1 0 0 3 1.5 1.5 0 0 0 0-3zm3.75 0a1.5 1.5 0 1 0 0 3 1.5 1.5 0 0 0 0-3z"/></symbol><symbol viewBox="0 0 10 17" id="tumblr"><path d="M10.009 15.145c-.68.321-1.297.548-1.849.678a7.792 7.792 0 0 1-1.789.195 4.863 4.863 0 0 1-1.718-.276 4.18 4.18 0 0 1-1.431-.79c-.396-.343-.669-.708-.823-1.092-.152-.386-.228-.944-.228-1.677V6.569H.007V4.302c.626-.204 1.351-.497 1.796-.879a4.363 4.363 0 0 0 1.075-1.375c.27-.534.457-1.213.558-2.04h2.265v3.704h3.682v2.857H5.701v4.105c0 .929-.012 1.464.086 1.727.097.262.341.534.607.691a2.3 2.3 0 0 0 1.209.319c.806 0 1.608-.264 2.406-.791v2.525z"/></symbol><symbol viewBox="0 0 16 14" id="twitter"><path d="M10.883.516c1.271-.023 1.948.441 2.594 1.029.549-.047 1.262-.353 1.682-.566l.409-.224c-.24.649-.566 1.156-1.066 1.541-.11.086-.221.201-.36.256v.007c.712-.007 1.3-.328 1.858-.502v.008c-.293.466-.69.938-1.113 1.277l-.513.407c.01.755-.011 1.474-.152 2.108-.82 3.685-2.992 6.186-6.43 7.257-1.235.385-3.23.544-4.645.192a11.997 11.997 0 0 1-1.93-.631c-.33-.144-.636-.3-.929-.479A44.503 44.503 0 0 1 0 12.02c.319.01.692.098 1.049.04.323-.052.639-.038.937-.103.742-.163 1.402-.378 1.97-.711.275-.161.693-.35.889-.582a2.792 2.792 0 0 1-.977-.176c-1.062-.375-1.68-1.065-2.082-2.1.322.035 1.248.119 1.465-.064-.405-.022-.794-.257-1.073-.431C1.324 7.359.627 6.462.633 5.082l.336.16c.214.091.433.139.689.192.108.022.324.086.448.039H2.09c-.165-.191-.435-.32-.601-.526C.941 4.265.428 3.217.753 1.969c.082-.317.213-.596.352-.854a.12.12 0 0 1 .016.008c.064.133.206.231.296.343.28.347.626.659.977.934 1.199.937 2.279 1.514 4.012 1.94.44.108.949.19 1.474.192-.148-.43-.1-1.126.016-1.541.292-1.046.927-1.8 1.858-2.204.222-.096.469-.167.728-.223l.401-.048z"/></symbol><symbol viewBox="0 0 20 12" id="view"><path d="M19.71 5.776l-.002.024-.001.013-.002.017-.003.021v.002a.757.757 0 0 1-.203.41c-.204.247-.427.479-.651.707-1.212 1.23-2.602 2.327-4.123 3.122-.973.509-2.012.919-3.09 1.116a8.971 8.971 0 0 1-3.55-.05c-2.04-.444-3.887-1.545-5.503-2.863-.75-.611-1.488-1.28-2.108-2.032-.272-.329-.272-.719 0-1.048.203-.247.426-.48.651-.708 1.211-1.229 2.601-2.326 4.123-3.122C6.22.877 7.259.466 8.337.269a8.971 8.971 0 0 1 3.55.051c2.04.443 3.887 1.545 5.503 2.862.75.611 1.488 1.281 2.108 2.033a.754.754 0 0 1 .209.45l.001.012.001.025a.435.435 0 0 1 .002.037l-.001.037zM9.99 1.942a3.645 3.645 0 1 0 0 7.29 3.645 3.645 0 0 0 0-7.29zm0 5.467a1.822 1.822 0 1 1 0-3.643 1.822 1.822 0 0 1 0 3.643z"/></symbol><symbol viewBox="0 0 16 12" id="youtube"><path d="M13.537.523L8.312.518 2.883.523C1.525.523 0 1.429 0 2.759v6.618c0 1.329 1.525 2.14 2.883 2.14h10.654c1.359 0 2.459-.811 2.459-2.14V2.759c0-1.33-1.1-2.236-2.459-2.236zM6.964 8.566l-.032-5.04 3.508 2.542-3.476 2.498z"/></symbol></svg>