<?xml version="1.0" encoding="utf-8"?><svg width="587" height="570" viewBox="0 0 587 570" xmlns="http://www.w3.org/2000/svg" xmlns:xlink="http://www.w3.org/1999/xlink"><svg width="32" height="31" viewBox="0 0 32 31" id="alarm"><path fill-rule="evenodd" fill="#95E1D3" d="M30.74 9.503a15.723 15.723 0 0 0-8.243-8.243c1-.787 2.258-1.26 3.629-1.26A5.874 5.874 0 0 1 32 5.874a5.846 5.846 0 0 1-1.26 3.629zM30.5 16c0 3.852-1.512 7.343-3.963 9.94l2.029 2.028a1.483 1.483 0 1 1-2.098 2.097l-2.178-2.178A14.426 14.426 0 0 1 16 30.5c-3.079 0-5.928-.966-8.276-2.603L5.561 30.06a1.5 1.5 0 0 1-2.122-2.121l2.012-2.012C3.008 23.332 1.5 19.845 1.5 16 1.5 7.992 7.992 1.5 16 1.5S30.5 7.992 30.5 16zM16 4.5C9.649 4.5 4.5 9.648 4.5 16c0 6.351 5.149 11.5 11.5 11.5S27.5 22.351 27.5 16c0-6.352-5.149-11.5-11.5-11.5zm6 13h-6a1.5 1.5 0 0 1-1.5-1.5V8a1.5 1.5 0 0 1 3 0v6.499H22a1.5 1.5 0 0 1 0 3.001zM1.287 9.705A5.964 5.964 0 0 1 0 6a6 6 0 0 1 6-6c1.4 0 2.685.483 3.706 1.287a16.057 16.057 0 0 0-8.419 8.418z"/></svg><svg width="32" height="32" viewBox="0 0 32 32" id="book" x="32" y="31"><path fill-rule="evenodd" fill="#95E1D3" d="M31.065 25.889l-14.471 5.988a1.489 1.489 0 0 1-1.188 0L.935 25.889A1.5 1.5 0 0 1 0 24.5v-23A1.5 1.5 0 0 1 2.073.114h.001l.002.001.013.005L16 5.877 29.911.12l.013-.005.003-.001A1.5 1.5 0 0 1 32 1.5v23a1.5 1.5 0 0 1-.935 1.389zM14.5 8.503L3 3.744v19.753l11.5 4.759V8.503zM29 3.744L17.5 8.503v19.753L29 23.497V3.744zm-9.121 6.89l5.5-2.5a1.5 1.5 0 0 1 1.242 2.731l-5.5 2.5a1.5 1.5 0 0 1-1.242-2.731zm0 5.5l5.5-2.5a1.5 1.5 0 0 1 1.242 2.731l-5.5 2.501v-.001a1.5 1.5 0 0 1-1.242-2.731zm0 5.5l5.5-2.5a1.5 1.5 0 0 1 1.242 2.731l-5.5 2.5a1.5 1.5 0 0 1-1.242-2.731zM6 8c.221 0 .431.048.621.134l5.5 2.5a1.501 1.501 0 0 1-1.242 2.731l-5.5-2.5A1.5 1.5 0 0 1 6 8zm0 5.5c.221 0 .431.048.621.134l5.5 2.5a1.5 1.5 0 1 1-1.242 2.731v.001l-5.5-2.501A1.5 1.5 0 0 1 6 13.5zM6 19c.221 0 .431.048.621.134l5.5 2.5a1.501 1.501 0 0 1-1.242 2.731l-5.5-2.5A1.5 1.5 0 0 1 6 19z"/></svg><svg width="32" height="32" viewBox="0 0 32 32" id="bullseye" x="64" y="63"><path fill-rule="evenodd" fill="#95E1D3" d="M16 31.998c-8.836 0-16-7.163-16-16.001C0 7.162 7.164-.002 16-.002c8.837 0 16 7.164 16 15.999 0 8.838-7.163 16.001-16 16.001zm0-29c-7.18 0-13 5.82-13 12.999 0 7.18 5.82 13.001 13 13.001s13-5.821 13-13.001c0-7.179-5.82-12.999-13-12.999zm0 22.499a9.5 9.5 0 1 1 0-18.999 9.5 9.5 0 0 1 0 18.999zm0-15.999a6.502 6.502 0 0 0 0 13.001 6.502 6.502 0 0 0 0-13.001zm0 9.501a3 3 0 1 1 .002-6.002A3 3 0 0 1 16 19z"/></svg><svg width="18" height="15" viewBox="0 0 18 15" id="cart" x="96" y="95"><path fill-rule="evenodd" fill="#FFF" d="M17.726 3.663h.001l-2.475 5.5a.824.824 0 0 1-.697.485l-7.128.475.412 1.176H15.6a1.651 1.651 0 1 1-1.65 1.651h-7.7a1.65 1.65 0 1 1-1.65-1.651h1.491L2.915 2.225h-1.89a.825.825 0 0 1 0-1.65H3.5c.36 0 .663.232.776.553l.003-.001.48 1.373h12.216a.825.825 0 0 1 .751 1.163zM5.337 4.15l1.525 4.357 7.089-.473 1.748-3.884H5.337z"/></svg><svg width="32" height="28" viewBox="0 0 32 28" id="computer" x="114" y="110"><path fill-rule="evenodd" fill="#95E1D3" d="M30 23h-9.5v2.5l2 2v.5h-13v-.5l2-2V23H2a1.5 1.5 0 0 1-1.5-1.501V1.5A1.5 1.5 0 0 1 2 0h28a1.5 1.5 0 0 1 1.5 1.5v19.999A1.5 1.5 0 0 1 30 23zm-.5-21h-27v17h27V2zM13 9c.414 0 .789.168 1.061.439l.939.939 2.939-2.939A1.499 1.499 0 0 1 20.5 8.5c0 .414-.168.789-.439 1.061l-4 4a1.499 1.499 0 0 1-2.122 0l-2-2.001A1.5 1.5 0 0 1 13 9z"/></svg><svg width="28" height="32" viewBox="0 0 28 32" id="equalizer" x="146" y="138"><path fill-rule="evenodd" fill="#95E1D3" d="M26.5 16.497h-3a1.5 1.5 0 0 1-1.5-1.499v-6a1.5 1.5 0 0 1 1.5-1.499h3A1.5 1.5 0 0 1 28 8.998v6a1.5 1.5 0 0 1-1.5 1.499zm-3-15a1.5 1.5 0 0 1 3 0v4.501h-3V1.497zm-8 23h-3a1.5 1.5 0 0 1-1.5-1.499v-6a1.5 1.5 0 0 1 1.5-1.5h3a1.5 1.5 0 0 1 1.5 1.5v6a1.5 1.5 0 0 1-1.5 1.499zm-3-23a1.5 1.5 0 0 1 3 0v12.501h-3V1.497zm-8 19.001h-3A1.5 1.5 0 0 1 0 18.997v-6a1.5 1.5 0 0 1 1.5-1.499h3A1.5 1.5 0 0 1 6 12.997v6a1.5 1.5 0 0 1-1.5 1.501zm-3-19.001a1.5 1.5 0 0 1 3 0v8.502h-3V1.497zm3 29a1.5 1.5 0 1 1-3 0v-8.499h3v8.499zm11 0a1.5 1.5 0 1 1-3 0v-4.5h3v4.5zm11 0a1.5 1.5 0 1 1-3 0V17.999h3v12.498z"/></svg><svg width="18" height="18" viewBox="0 0 18 18" id="glass" x="174" y="170"><path fill-rule="evenodd" fill="#FFF" d="M17.317 14.983a1.65 1.65 0 0 1-2.334 2.333l-4.836-4.835A6.56 6.56 0 0 1 6.8 13.4a6.6 6.6 0 1 1 6.6-6.6 6.56 6.56 0 0 1-.919 3.347l4.836 4.836zM6.8 1.85a4.95 4.95 0 1 0 0 9.9 4.95 4.95 0 0 0 0-9.9z"/></svg><svg width="32" height="31" viewBox="0 0 32 31" id="home" x="192" y="188"><path fill-rule="evenodd" fill="#95E1D3" d="M32 16.5a1.5 1.5 0 0 1-1.5 1.5 1.49 1.49 0 0 1-1.02-.406l-.003.004L16.038 4.159 16 4.122 2.554 17.569l-.001-.001a1.5 1.5 0 1 1-2.092-2.149L14.919.96C15.192.677 15.575.5 16 .5h.001c.026 0 .052 0 .079.002l.012.001a.78.78 0 0 1 .068.006h.004c.367.04.694.212.933.468l.001-.001L23 6.878V5.5a1.5 1.5 0 1 1 3 0v4.378l5.598 5.598-.004.004c.25.268.406.625.406 1.02zM29 19v10.5a1.5 1.5 0 0 1-1.5 1.5h-3V19h-6v12h-14A1.5 1.5 0 0 1 3 29.5V19L16 6l13 13zm-15.5 0h-6v6h6v-6z"/></svg><svg width="32" height="32" viewBox="0 0 32 32" id="image" x="224" y="219"><path fill-rule="evenodd" fill="#95E1D3" d="M30.5 32h-29A1.5 1.5 0 0 1 0 30.5v-29A1.5 1.5 0 0 1 1.5 0h29A1.5 1.5 0 0 1 32 1.5v29a1.5 1.5 0 0 1-1.5 1.5zM29 3H3v26h26V3zM6.5 4.5H12a1.5 1.5 0 1 1 0 3H7.5V12a1.5 1.5 0 0 1-3 0V4.5h2zM4.5 20a1.5 1.5 0 1 1 3 0v4.499H12v.001a1.5 1.5 0 1 1 0 3H4.5V20zM20 4.5h7.5V12a1.5 1.5 0 0 1-3 0V7.5H20a1.5 1.5 0 0 1 0-3zm0 20v-.001h4.5V20a1.5 1.5 0 1 1 3 0v7.5H20a1.5 1.5 0 0 1 0-3z"/></svg><svg width="32" height="32" viewBox="0 0 32 32" id="line-graph" x="256" y="251"><path fill-rule="evenodd" fill="#95E1D3" d="M30.5 32h-29A1.5 1.5 0 0 1 0 30.5v-29A1.5 1.5 0 0 1 1.5 0h29A1.5 1.5 0 0 1 32 1.5v29a1.5 1.5 0 0 1-1.5 1.5zM29 3H3v26h26V3zM5.215 16.239v-.002l4-2.499v.001a1.49 1.49 0 0 1 1.625.036l.006-.009 6.631 4.42 7.638-5.391a1.5 1.5 0 0 1 1.763 2.426h.001l-8.5 6.001-.001-.001c-.246.179-.55.284-.878.284-.321 0-.618-.1-.861-.272l-6.657-4.438-3.135 1.96a1.5 1.5 0 0 1-1.632-2.516z"/></svg><svg width="30" height="30" viewBox="0 0 30 30" id="picture" x="288" y="283"><path fill-rule="evenodd" fill="#95E1D3" d="M30 23.999c0 .651-.419 1.2-1 1.407v1.683a1.498 1.498 0 0 1-.5 2.91c-.652 0-1.202-.42-1.408-1.001h-1.684A1.497 1.497 0 0 1 24 29.999c-.652 0-1.202-.42-1.408-1.001h-1.684a1.497 1.497 0 0 1-1.408 1.001c-.652 0-1.201-.42-1.408-1.001h-1.684A1.497 1.497 0 0 1 15 29.999c-.652 0-1.202-.42-1.408-1.001h-1.684a1.496 1.496 0 0 1-1.408 1.001c-.652 0-1.202-.42-1.408-1.001H7.408A1.496 1.496 0 0 1 6 29.999c-.652 0-1.202-.42-1.408-1.001H2.908A1.497 1.497 0 0 1 1.5 29.999a1.498 1.498 0 1 1-.5-2.91v-1.683c-.581-.207-1-.756-1-1.407 0-.654.419-1.202 1-1.409v-1.683c-.581-.208-1-.757-1-1.409 0-.651.419-1.201 1-1.408v-1.684c-.581-.206-1-.755-1-1.407a1.5 1.5 0 0 1 1-1.41v-1.683c-.581-.206-1-.755-1-1.408 0-.652.419-1.202 1-1.407V7.406c-.581-.207-1-.756-1-1.408 0-.652.419-1.202 1-1.408V2.905C.419 2.7 0 2.15 0 1.498A1.5 1.5 0 0 1 1.5-.001c.652 0 1.201.417 1.408 1h1.684a1.493 1.493 0 0 1 2.816 0h1.684a1.493 1.493 0 0 1 2.816 0h1.684c.206-.583.756-1 1.408-1 .652 0 1.201.417 1.408 1h1.684c.207-.583.756-1 1.408-1 .652 0 1.201.417 1.408 1h1.684c.206-.583.756-1 1.408-1 .652 0 1.201.417 1.408 1h1.684c.206-.583.756-1 1.408-1 .828 0 1.5.67 1.5 1.499 0 .652-.419 1.202-1 1.407V4.59c.581.206 1 .756 1 1.408 0 .652-.419 1.201-1 1.408v1.685c.581.205 1 .755 1 1.407 0 .653-.419 1.202-1 1.408v1.683a1.5 1.5 0 0 1 1 1.41c0 .652-.419 1.201-1 1.407v1.684c.581.207 1 .757 1 1.408 0 .652-.419 1.201-1 1.409v1.683c.581.207 1 .755 1 1.409zM26 3.997H4v22.001h22V3.997zM13 19.998l7-8.499 4.5 7v5.999h-19l6-5.999 1.5 1.499zm-3-7a3 3 0 1 1 0-6 3 3 0 0 1 0 6z"/></svg><svg width="30" height="30" viewBox="0 0 30 30" id="picture-white" x="318" y="313"><path fill-rule="evenodd" fill="#FFF" d="M30 23.999c0 .653-.419 1.202-1 1.409v1.683a1.498 1.498 0 0 1-.5 2.908A1.495 1.495 0 0 1 27.092 29h-1.684a1.495 1.495 0 0 1-1.408.999A1.494 1.494 0 0 1 22.592 29h-1.684a1.495 1.495 0 0 1-1.408.999A1.494 1.494 0 0 1 18.092 29h-1.684a1.494 1.494 0 0 1-1.408.999A1.494 1.494 0 0 1 13.592 29h-1.684a1.495 1.495 0 0 1-1.408.999A1.494 1.494 0 0 1 9.092 29H7.408A1.494 1.494 0 0 1 6 29.999 1.494 1.494 0 0 1 4.592 29H2.908A1.495 1.495 0 0 1 0 28.5c0-.652.419-1.202 1-1.409v-1.683c-.581-.207-1-.756-1-1.409 0-.652.419-1.201 1-1.407v-1.684c-.581-.207-1-.757-1-1.408 0-.652.419-1.202 1-1.409v-1.683c-.581-.207-1-.756-1-1.408 0-.653.419-1.202 1-1.409v-1.684c-.581-.206-1-.755-1-1.407s.419-1.202 1-1.408V7.408c-.581-.207-1-.756-1-1.409 0-.652.419-1.201 1-1.407V2.908A1.497 1.497 0 1 1 2.908.999h1.684A1.494 1.494 0 0 1 6 0c.652 0 1.202.418 1.408.999h1.684A1.494 1.494 0 0 1 10.5 0c.652 0 1.201.418 1.408.999h1.684A1.494 1.494 0 0 1 15 0c.652 0 1.202.418 1.408.999h1.684A1.494 1.494 0 0 1 19.5 0c.652 0 1.201.418 1.408.999h1.684A1.494 1.494 0 0 1 24 0c.652 0 1.201.418 1.408.999h1.684A1.495 1.495 0 0 1 30 1.5c0 .651-.419 1.201-1 1.408v1.684c.581.206 1 .755 1 1.407 0 .653-.419 1.202-1 1.409v1.684c.581.206 1 .756 1 1.408 0 .652-.419 1.201-1 1.407v1.684c.581.207 1 .756 1 1.409 0 .652-.419 1.201-1 1.408v1.683c.581.207 1 .757 1 1.409 0 .651-.419 1.201-1 1.408v1.684c.581.206 1 .755 1 1.407zm-4-20H4V26h22V3.999zM13 20l7-8.5 4.5 6.999V24.5h-19l6-6.001L13 20zm-3-7.001A2.999 2.999 0 1 1 10 7a3 3 0 1 1 0 5.999z"/></svg><svg width="20" height="26" viewBox="0 0 20 26" id="pin" x="348" y="343"><path fill-rule="evenodd" fill="#F38181" d="M10 25.8S.4 15.101.4 9.8 4.698.2 10 .2s9.6 4.299 9.6 9.6c0 5.301-9.6 16-9.6 16zm0-22.4a6.4 6.4 0 1 0 0 12.8 6.4 6.4 0 0 0 0-12.8zm0 9.6a3.2 3.2 0 1 1 0-6.4 3.2 3.2 0 0 1 0 6.4z"/></svg><svg width="150" height="150" viewBox="0 0 61.53 61.53" shape-rendering="geometricPrecision" text-rendering="geometricPrecision" image-rendering="optimizeQuality" fill-rule="evenodd" clip-rule="evenodd" id="speech" x="368" y="369"><defs><style>.fil0{fill:#95e1d3}</style></defs><path class="nfil0" d="M42.45 33.02h-.82v2.05c0 .08-.01.17-.02.25-.01.05-.03.11-.05.16-.01.02-.02.05-.03.07-.02.04-.04.09-.07.13a.3.3 0 0 1-.04.08c-.04.06-.09.11-.14.16 0 .01 0 .01-.01.02-.22.22-.52.35-.85.36h-.02c-.34 0-.65-.14-.87-.36l-2.92-2.92H25.23c-.68 0-1.23-.55-1.23-1.23V19.48c0-.68.55-1.23 1.23-1.23h17.22c.68 0 1.23.55 1.23 1.23v12.31c0 .68-.55 1.23-1.23 1.23zM61.53 0H0v61.53h61.53V0zM1.21 1.21h59.11v59.11H1.21V1.21zM36.1 34.25l2.6 2.59c.44.43 1.04.69 1.7.69v.82c0 .68-.55 1.23-1.23 1.23H26.15l-3.34 3.33c-.22.22-.53.36-.87.36h-.01c-.33 0-.64-.14-.86-.36 0 0 0-.01-.01-.01-.05-.06-.1-.11-.14-.17-.01-.02-.02-.05-.04-.08-.02-.04-.05-.08-.07-.13-.01-.02-.01-.05-.02-.07-.02-.05-.04-.1-.05-.16-.02-.08-.03-.16-.03-.25v-2.46h-1.64c-.68 0-1.23-.55-1.23-1.23V24.41c0-.68.55-1.24 1.23-1.24h3.69v8.62c0 1.36 1.11 2.46 2.47 2.46H36.1z" id="nLayer_x0020_1"/></svg><svg width="17" height="15" viewBox="0 0 17 15" id="speech-bubble" x="518" y="519"><path fill-rule="evenodd" fill="#95E1D3" d="M9.416 12.358c-.573 0-1.134-.165-1.676-.243-2.191 2.771-5.647 2.225-5.647 2.225 2.441-1.155 2.391-3.069 1.957-3.324C2.134 9.89.982 8.176.982 6.255c0-3.39 3.727-6.139 8.434-6.139 4.708 0 7.577 2.749 7.577 6.139 0 3.392-2.869 6.103-7.577 6.103zM5.242 4.875a1.5 1.5 0 1 0 0 3 1.5 1.5 0 0 0 0-3zm3.75 0a1.5 1.5 0 1 0 0 3 1.5 1.5 0 0 0 0-3zm3.75 0a1.5 1.5 0 1 0 0 3 1.5 1.5 0 0 0 0-3z"/></svg><svg width="32" height="24" viewBox="0 0 32 24" id="users" x="535" y="534"><path fill-rule="evenodd" fill="#FFF" d="M31.95 22.503v.002a.993.993 0 0 1-.995.992h-7.412c.556-.123.972-.614.972-1.205l-.001-.002h.001s0-4.504-3.301-6.142c-1.412-.7-1.505-.566-2.206-.732l.02-1.95s-.771-.588-1.011-2.431c-.482.14-.641-.564-.67-1.012-.026-.431-.279-1.783.31-1.661-.121-.902-.207-1.715-.165-2.147.148-1.512 1.61-3.093 3.861-3.207 2.649.114 3.698 1.694 3.845 3.206.043.432-.051 1.246-.172 2.146.589-.12.333 1.228.304 1.661-.025.448-.188 1.149-.669 1.009-.241 1.843-1.012 2.426-1.012 2.426l.018 1.948s.488.278 2.546 1.127c2.058.851 1.412.214 3.088 1.045 2.649 1.314 2.649 4.927 2.649 4.927zM17.023 15.84c2.262.935 1.552.235 3.395 1.15 2.912 1.443 2.912 5.415 2.912 5.415h-.001v.003a1.09 1.09 0 0 1-1.093 1.089H1.093A1.09 1.09 0 0 1 0 22.408v-.003h-.001s0-3.972 2.912-5.417c1.843-.913 1.133-.171 3.395-1.106 2.262-.933 2.798-1.26 2.798-1.26l.021-2.152s-.847-.646-1.11-2.67c-.53.153-.705-.621-.736-1.113-.029-.475-.307-1.96.339-1.825-.132-.992-.227-1.886-.18-2.359.162-1.664 1.769-3.4 4.244-3.528 2.911.126 4.065 1.863 4.226 3.525.047.475-.056 1.369-.189 2.359.647-.132.366 1.35.334 1.825-.028.493-.207 1.263-.736 1.11-.264 2.026-1.111 2.666-1.111 2.666l.019 2.142s.536.304 2.798 1.238z"/></svg><svg width="20" height="12" viewBox="0 0 20 12" id="view" x="567" y="558"><path fill-rule="evenodd" fill="#95E1D3" d="M19.71 5.776l-.002.024-.001.013-.002.017-.003.021v.002a.757.757 0 0 1-.203.41c-.204.247-.427.479-.651.707-1.212 1.23-2.602 2.327-4.123 3.122-.973.509-2.012.919-3.09 1.116a8.971 8.971 0 0 1-3.55-.05c-2.04-.444-3.887-1.545-5.503-2.863-.75-.611-1.488-1.28-2.108-2.032-.272-.329-.272-.719 0-1.048.203-.247.426-.48.651-.708 1.211-1.229 2.601-2.326 4.123-3.122C6.22.877 7.259.466 8.337.269a8.971 8.971 0 0 1 3.55.051c2.04.443 3.887 1.545 5.503 2.862.75.611 1.488 1.281 2.108 2.033a.754.754 0 0 1 .209.45l.001.012.001.025a.435.435 0 0 1 .002.037l-.001.037zM9.99 1.942a3.645 3.645 0 1 0 0 7.29 3.645 3.645 0 0 0 0-7.29zm0 5.467a1.822 1.822 0 1 1 0-3.643 1.822 1.822 0 0 1 0 3.643z"/></svg></svg>